PathFileType	4	(X/Y/Z)	pose_F01_0-96.trc
DataRate	CameraRate	NumFrames	NumMarkers	Units	OrigDataRate	OrigDataStartFrame	OrigNumFrames
30	30	9	21	m	30	72	96
Frame#	Time	CHip			RHip			RKnee			RAnkle			RBigToe			RSmallToe			RHeel			LHip			LKnee			LAnkle			LBigToe			LSmallToe			LHeel			Neck			Nose			RShoulder			RElbow			RWrist			LShoulder			LElbow			LWrist			
		X1	Y1	Z1	X2	Y2	Z2	X3	Y3	Z3	X4	Y4	Z4	X5	Y5	Z5	X6	Y6	Z6	X7	Y7	Z7	X8	Y8	Z8	X9	Y9	Z9	X10	Y10	Z10	X11	Y11	Z11	X12	Y12	Z12	X13	Y13	Z13	X14	Y14	Z14	X15	Y15	Z15	X16	Y16	Z16	X17	Y17	Z17	X18	Y18	Z18	X19	Y19	Z19	X20	Y20	Z20	X21	Y21	Z21	
72	2.4	-0.21815862765019076	1.8409013659011015	-0.7127534890621545	-0.2381837588942343	1.8346898614243918	-0.6376614073076123	-0.279703376133691	1.7039593396519914	-0.5822166357529114	-0.2940437348639068	1.5664527997580269	-0.5687626690440502	-0.2836998457404089	1.5343121291369106	-0.5142032003596485	-0.2954422256810362	1.5449801620014671	-0.49829272607585545	-0.29683270940609874	1.5498590577766882	-0.5813723988883704	-0.19878704232923008	1.8411574523713787	-0.7781015205937691	-0.22727627836974829	1.7115334793883583	-0.7167950141212667	-0.2420055273115262	1.5756574266640357	-0.7336205761882466	-0.23669904715775472	1.5380758360683568	-0.7075612060643779	-0.22583944660181093	1.5418812794334595	-0.743651994369399				-0.21799184409333763	1.9956492232114518	-0.7378434073276575	-0.21121394878750263	2.060664384379118	-0.7088916595306418	-0.2423790014223326	1.9902214551015682	-0.6444134116237819	-0.2613297298775948	1.9057693289741149	-0.5893507316234586	-0.29465893593092773	1.8907262222475485	-0.4917629449946156	-0.18860136063335783	2.0029061184724495	-0.8333902483779592	-1.0284747252814495	1.815177129964648	-0.03205733765405132	-0.9469243374461622	1.7674078553337869	-0.12094759328911812
73	2.433333333333333	-0.21719671605504512	1.8397680501859153	-0.7111303299274102	-0.23391533106029502	1.834898224488683	-0.6434518317359579	-0.279703376133691	1.7039593396519914	-0.5822166357529114	-0.2940437348639068	1.5664527997580269	-0.5687626690440502	-0.2836998457404089	1.5343121291369106	-0.5142032003596485	-0.2954422256810362	1.5449801620014671	-0.49829272607585545	-0.29683270940609874	1.5498590577766882	-0.5813723988883704	-0.19866054183820828	1.8399396614393193	-0.7772927778009728	-0.22727627836974829	1.7115334793883583	-0.7167950141212667	-0.2420055273115262	1.5756574266640357	-0.7336205761882466	-0.23669904715775472	1.5380758360683568	-0.7075612060643779	-0.22583944660181093	1.5418812794334595	-0.743651994369399				-0.2179286133176305	1.9954587474627656	-0.7379972180027021	-0.20996910419061635	2.062074032217029	-0.7144875223489268	-0.24231276779233837	1.9901114538396787	-0.6445360306714084	-0.2570124198687285	1.9059157780775802	-0.5938346498143561	-0.29465893593092773	1.8907262222475485	-0.4917629449946156	-0.18851428619853536	2.0029610305398244	-0.833519817105975	-1.0109539130772904	1.8130026348041781	-0.058874212281239846	-0.9469243374461622	1.7674078553337869	-0.12094759328911812
74	2.466666666666667	-0.21623480445989948	1.838634734470729	-0.7095071707926658	-0.22964690322635575	1.8351065875529742	-0.6492422561643035	-0.279703376133691	1.7039593396519914	-0.5822166357529114	-0.2940437348639068	1.5664527997580269	-0.5687626690440502	-0.2836998457404089	1.5343121291369106	-0.5142032003596485	-0.2954422256810362	1.5449801620014671	-0.49829272607585545	-0.29683270940609874	1.5498590577766882	-0.5813723988883704	-0.1985340413471865	1.8387218705072597	-0.7764840350081766	-0.22727627836974829	1.7115334793883583	-0.7167950141212667	-0.2420055273115262	1.5756574266640357	-0.7336205761882466	-0.23669904715775472	1.5380758360683568	-0.7075612060643779	-0.22583944660181093	1.5418812794334595	-0.743651994369399				-0.2157974320212768	1.99538637747471	-0.7402183155850692	-0.20991126880713945	2.0632086274575263	-0.7150005995922234	-0.24026520288815764	1.9900990949310626	-0.6466020284231414	-0.2550105949218608	1.90843872223617	-0.5962551858856342	-0.29465893593092773	1.8907262222475485	-0.4917629449946156	-0.1870025276574966	2.0018857191943003	-0.8383827737159362	-0.9998307082243061	1.8162782974649392	-0.07440477209613973	-0.9469243374461622	1.7674078553337869	-0.12094759328911812
75	2.5	-0.21527289286475385	1.8375014187555427	-0.7078840116579215	-0.2287234564172152	1.8348313329153982	-0.6459163085968442	-0.279703376133691	1.7039593396519914	-0.5822166357529114	-0.2940437348639068	1.5664527997580269	-0.5687626690440502	-0.2836998457404089	1.5343121291369106	-0.5142032003596485	-0.2954422256810362	1.5449801620014671	-0.49829272607585545	-0.29683270940609874	1.5498590577766882	-0.5813723988883704	-0.1984075408561647	1.8375040795752002	-0.7756752922153803	-0.22727627836974829	1.7115334793883583	-0.7167950141212667	-0.2420055273115262	1.5756574266640357	-0.7336205761882466	-0.23669904715775472	1.5380758360683568	-0.7075612060643779	-0.22583944660181093	1.5418812794334595	-0.743651994369399				-0.21589378180507227	1.9955037736871195	-0.7404324792493239	-0.2071134260209636	2.06054803862828	-0.7145612716655867	-0.23936110851995906	1.991311585917832	-0.6439275962941863	-0.25268154346199595	1.909038424318778	-0.5983081676092649	-0.29465893593092773	1.8907262222475485	-0.4917629449946156	-0.18628932114448868	2.0008156947343423	-0.8354667265420634	-0.9985567253144025	1.8132025168622916	-0.0674742929275303	-0.9469243374461622	1.7674078553337869	-0.12094759328911812
76	2.533333333333333	-0.2143109812696082	1.8363681030403565	-0.706260852523177	-0.22780000960807464	1.8345560782778225	-0.6425903610293848	-0.279703376133691	1.7039593396519914	-0.5822166357529114	-0.2940437348639068	1.5664527997580269	-0.5687626690440502	-0.2836998457404089	1.5343121291369106	-0.5142032003596485	-0.2954422256810362	1.5449801620014671	-0.49829272607585545	-0.29683270940609874	1.5498590577766882	-0.5813723988883704	-0.19828104036514288	1.8362862886431408	-0.774866549422584	-0.22727627836974829	1.7115334793883583	-0.7167950141212667	-0.2420055273115262	1.5756574266640357	-0.7336205761882466	-0.23669904715775472	1.5380758360683568	-0.7075612060643779	-0.22583944660181093	1.5418812794334595	-0.743651994369399				-0.21199742499782173	1.9954549618698785	-0.736738132464142	-0.2054517488380681	2.060336881935612	-0.7092066321040433	-0.23541453443189944	1.9910867732891286	-0.6399360704976268	-0.25162016144098104	1.909108333477577	-0.5952768693838633	-0.29465893593092773	1.8907262222475485	-0.4917629449946156	-0.18394992614238354	2.0006052079671477	-0.8376284357100441	-1.0051598557308343	1.81391125555801	-0.05453175985658739	-0.9469243374461622	1.7674078553337869	-0.12094759328911812
77	2.566666666666667	-0.21342537009988252	1.8353450043285306	-0.6961824074978668	-0.2280646067148957	1.831642754614532	-0.6337600445047804	-0.279703376133691	1.7039593396519914	-0.5822166357529114	-0.2940437348639068	1.5664527997580269	-0.5687626690440502	-0.2836998457404089	1.5343121291369106	-0.5142032003596485	-0.2954422256810362	1.5449801620014671	-0.49829272607585545	-0.29683270940609874	1.5498590577766882	-0.5813723988883704	-0.19659298562915678	1.8356661626949868	-0.768516074240693	-0.22727627836974829	1.7115334793883583	-0.7167950141212667	-0.2420055273115262	1.5756574266640357	-0.7336205761882466	-0.23669904715775472	1.5380758360683568	-0.7075612060643779	-0.22583944660181093	1.5418812794334595	-0.743651994369399				-0.21020107924076123	1.995384703746693	-0.7305896001511905	-0.20180755842013715	2.0591458284098914	-0.7059057315054255	-0.2336519052363111	1.9895677798695777	-0.6337789484906745	-0.24863452661985805	1.9096489590539663	-0.5942181184605023	-0.29465893593092773	1.8907262222475485	-0.4917629449946156	-0.18230070741433754	2.0005906766497543	-0.8316561385722222	-1.0174696710651696	1.8123318499884398	-0.02879217480792466	-0.9469243374461622	1.7674078553337869	-0.12094759328911812
78	2.6	-0.21253975893015686	1.8343219056167048	-0.6861039624725563	-0.2284508203161346	1.8319468274903652	-0.6124657888380891	-0.279703376133691	1.7039593396519914	-0.5822166357529114	-0.2940437348639068	1.5664527997580269	-0.5687626690440502	-0.2836998457404089	1.5343121291369106	-0.5142032003596485	-0.2954422256810362	1.5449801620014671	-0.49829272607585545	-0.29683270940609874	1.5498590577766882	-0.5813723988883704	-0.19421070359950857	1.8370149558803937	-0.7590581378909556	-0.22727627836974829	1.7115334793883583	-0.7167950141212667	-0.2420055273115262	1.5756574266640357	-0.7336205761882466	-0.23669904715775472	1.5380758360683568	-0.7075612060643779	-0.22583944660181093	1.5418812794334595	-0.743651994369399				-0.20768182981904362	1.9946184456513703	-0.7214226151239375	-0.20011952741436453	2.0577355539403404	-0.7000780878027724	-0.23168905427294106	1.9905828410107569	-0.6273869605391783	-0.24554006920675578	1.912865080029652	-0.5846850939727597	-0.29465893593092773	1.8907262222475485	-0.4917629449946156	-0.17931935038974606	1.9987417481839254	-0.8198124657324967	-1.0360514374460625	1.8125219498825802	0.003709272145359446	-0.9469243374461622	1.7674078553337869	-0.12094759328911812
79	2.6333333333333333	-0.21165414776043118	1.833298806904879	-0.676025517447246	-0.22883703391737348	1.8322509003661984	-0.5911715331713979	-0.279703376133691	1.7039593396519914	-0.5822166357529114	-0.2940437348639068	1.5664527997580269	-0.5687626690440502	-0.2836998457404089	1.5343121291369106	-0.5142032003596485	-0.2954422256810362	1.5449801620014671	-0.49829272607585545	-0.29683270940609874	1.5498590577766882	-0.5813723988883704	-0.19404796911768404	1.8336257407531078	-0.7471390198470157	-0.22727627836974829	1.7115334793883583	-0.7167950141212667	-0.2420055273115262	1.5756574266640357	-0.7336205761882466	-0.23669904715775472	1.5380758360683568	-0.7075612060643779	-0.22583944660181093	1.5418812794334595	-0.743651994369399				-0.20529553785100862	1.9932237361522107	-0.7120722699128542	-0.19741851253174922	2.0572187251694927	-0.6902780902796373	-0.2280461977767415	1.9902325726090628	-0.614919861990287	-0.24208435775661666	1.9083318896223387	-0.571581956004319	-0.29465893593092773	1.8907262222475485	-0.4917629449946156	-0.17719255303621997	1.996668117800785	-0.8106028982564146	-1.057829736678843	1.8143529490637367	0.04030919621169663	-0.9469243374461622	1.7674078553337869	-0.12094759328911812
80	2.6666666666666665	-0.2116297190338692	1.832332678421073	-0.6493147005225062	-0.22922324751861237	1.8325549732420316	-0.5698772775047067	-0.279703376133691	1.7039593396519914	-0.5822166357529114	-0.2940437348639068	1.5664527997580269	-0.5687626690440502	-0.2836998457404089	1.5343121291369106	-0.5142032003596485	-0.2954422256810362	1.5449801620014671	-0.49829272607585545	-0.29683270940609874	1.5498590577766882	-0.5813723988883704	-0.19573312559343706	1.8338025778091573	-0.7197068288617102	-0.22727627836974829	1.7115334793883583	-0.7167950141212667	-0.2420055273115262	1.5756574266640357	-0.7336205761882466	-0.23669904715775472	1.5380758360683568	-0.7075612060643779	-0.22583944660181093	1.5418812794334595	-0.743651994369399				-0.20735245959045928	1.9915140315569764	-0.6890904735144278	-0.2000764578261781	2.061389903359526	-0.6709129337400459	-0.22844541042902117	1.9908725626636417	-0.5976978958726309	-0.24292074785654014	1.9256353902019687	-0.556806847519306	-0.29465893593092773	1.8907262222475485	-0.4917629449946156	-0.18214906149723428	1.9962083692831254	-0.7858974687233391	-1.0911549952620978	1.8117866593122502	0.10088390178855759	-0.9469243374461622	1.7674078553337869	-0.12094759328911812
